<?xml version="1.0" standalone="no"?>
<!DOCTYPE svg PUBLIC "-//W3C//DTD SVG 1.1//EN" "http://www.w3.org/Graphics/SVG/1.1/DTD/svg11.dtd"><svg t="1596378082158"
  class="icon" viewBox="0 0 1024 1024" version="1.1" xmlns="http://www.w3.org/2000/svg" p-id="5342" width="20"
  height="20" xmlns:xlink="http://www.w3.org/1999/xlink">
  <defs>
    <style type="text/css"></style>
  </defs>
  <path
    d="M755.809524 73.142857a195.047619 195.047619 0 0 1 195.047619 195.047619v487.619048a195.047619 195.047619 0 0 1-195.047619 195.047619H268.190476a195.047619 195.047619 0 0 1-195.047619-195.047619V268.190476a195.047619 195.047619 0 0 1 195.047619-195.047619h487.619048m0-73.142857H268.190476A268.434286 268.434286 0 0 0 0 268.190476v487.619048a268.434286 268.434286 0 0 0 268.190476 268.190476h487.619048a268.434286 268.434286 0 0 0 268.190476-268.190476V268.190476A268.434286 268.434286 0 0 0 755.809524 0zM512 292.571429a219.428571 219.428571 0 1 1-219.428571 219.428571 219.428571 219.428571 0 0 1 219.428571-219.428571m0-73.142858a292.571429 292.571429 0 1 0 292.571429 292.571429A292.839619 292.839619 0 0 0 512 219.428571z m329.142857-12.190476a48.761905 48.761905 0 1 1-48.761905-48.761905 48.761905 48.761905 0 0 1 48.761905 48.761905z"
    p-id="5343" fill="#2c2c2c"></path>
</svg>
